<?xml version="1.0" encoding="utf-8"?>
<!-- Svg Vector Icons : http://www.onlinewebfonts.com/icon -->
<!DOCTYPE svg PUBLIC "-//W3C//DTD SVG 1.1//EN" "http://www.w3.org/Graphics/SVG/1.1/DTD/svg11.dtd">
<svg version="1.1" xmlns="http://www.w3.org/2000/svg" xmlns:xlink="http://www.w3.org/1999/xlink" x="0px" y="0px" viewBox="0 0 1000 1000" enable-background="new 0 0 1000 1000" xml:space="preserve">
<metadata> Svg Vector Icons : http://www.onlinewebfonts.com/icon </metadata>
<g><g transform="translate(0.000000,511.000000) scale(0.100000,-0.100000)"><path d="M544.6,4990.4c-42.5-13.5-104.4-38.7-135.3-54.1c-92.8-48.3-232-210.7-272.5-315.1C100,4526.5,100,4414.4,100,107.8c0-4314.3,0-4418.7,36.7-4513.4c50.3-125.6,199.1-284.1,326.7-340.2l100.5-46.4H5000h4436.1l100.5,46.4c127.6,56,276.4,214.6,326.7,340.2c36.7,94.7,36.7,199.1,36.7,4513.4c0,4314.3,0,4418.7-36.7,4513.4c-50.2,125.6-199.1,284.1-326.7,340.2l-100.5,46.4l-4407.1,3.9C1513,5013.6,606.4,5009.8,544.6,4990.4z M9484.4,4723.7c63.8-32.9,98.6-67.7,131.4-131.4l42.5-85V107.8v-4399.3l-42.5-85.1c-32.9-63.8-67.6-98.6-131.4-131.4l-85-42.5H5000H600.6l-85,44.5c-63.8,30.9-98.6,65.7-131.4,129.5l-42.5,85.1V107.8v4399.4l44.5,85c30.9,63.8,65.7,98.6,129.5,131.4l85,42.5H5000h4399.4L9484.4,4723.7z"/><path d="M1141.9,2895.1c-65.7-42.5-65.7-73.5-65.7-2775.7v-2677.1l42.5-29c38.7-27.1,440.7-30.9,3894.9-30.9h3852.3l27.1,44.5c23.2,36.7,29,454.2,36.7,2717.7l7.7,2677.1l-44.5,44.5l-44.5,44.5H5005.8C2893.1,2910.6,1153.5,2902.9,1141.9,2895.1z M8691.9,712.8c0-1072.8-5.8-1967.7-13.5-1992.8c-9.7-40.6-71.5,15.5-593.4,533.5c-496.7,492.9-599.2,587.6-705.5,637.9c-177.8,88.9-315.1,87-496.7-5.8c-73.5-36.7-181.7-106.3-239.7-154.6c-58-48.3-110.2-87-116-87c-7.7,0-119.8,110.2-253.2,247.4c-340.2,347.9-508.4,452.3-742.2,454.2c-191.4,1.9-427.2-127.6-695.9-382.7l-135.3-127.6l-434.9,442.6c-463.9,471.6-595.3,576-809.9,641.7c-154.6,48.3-235.8,48.3-396.3,0c-222.3-69.6-442.6-235.8-842.8-637.9c-197.2-199.1-477.4-477.4-622.4-618.5l-266.7-257.1v1625.6v1627.5h3682.2h3682.3V712.8z M3494.2,645.2c106.3-52.2,195.2-133.4,626.3-572.1c276.4-280.3,521.9-518,547-527.7c63.8-25.1,137.2,19.3,245.5,145c119.8,143,326.7,307.3,456.2,367.3c235.8,110.2,338.3,59.9,780.9-388.5c239.7-243.5,340.2-334.4,373.1-334.4c29,0,98.6,48.3,193.3,135.3c148.8,137.2,340.2,251.3,419.5,251.3c119.8,0,245.5-106.3,891.1-753.8l645.6-647.5v-355.7v-355.6l-1994.8,11.6c-1097.9,7.7-2756.4,13.5-3686.1,13.5H1302.3l11.6,711.3l13.5,709.4l715.2,709.4c396.3,392.4,769.3,746.1,835,790.6C3125,724.4,3287.4,747.6,3494.2,645.2z"/><path d="M4930.4,2292.1c-123.7-25.1-262.9-104.4-346-197.2c-42.5-46.4-108.2-96.6-146.9-116c-98.6-42.5-226.1-162.4-272.5-255.1c-90.8-175.9-3.9-405.9,201-535.4c56-34.8,148.8-104.4,204.9-154.6c127.6-116,280.3-175.9,448.5-177.8c156.6-1.9,249.4,25.1,394.3,112.1c87,52.2,133.4,67.7,203,67.7c282.2,0,543.1,201,543.1,415.6c0,42.5-17.4,112.1-36.7,154.6c-19.3,42.5-40.6,110.2-48.3,146.9c-36.7,197.2-315.1,388.5-564.4,388.5c-36.7,0-71.5,7.7-77.3,17.4c-29,48.3-338.3,162.4-409.8,150.8C5015.5,2307.5,4972.9,2299.8,4930.4,2292.1z M5177.8,2031.1c25.1-7.7,77.3-44.5,117.9-79.3c67.6-61.9,81.2-65.7,206.8-65.7c222.3,0,328.6-69.6,328.6-214.6c0-42.5,15.5-90.8,40.6-121.8c73.5-92.8,50.3-177.8-67.6-237.8c-46.4-23.2-92.8-27.1-218.4-17.4l-158.5,11.6l-83.1-85c-117.9-119.8-261-154.6-446.5-106.3c-92.8,23.2-135.3,56.1-210.7,154.6c-29,38.7-77.3,77.3-106.3,85c-148.8,36.7-241.6,158.5-201,264.8c25.1,65.7,104.4,125.6,203,154.6c88.9,25.1,146.9,65.7,146.9,104.4c0,44.5,85,125.6,162.4,150.8C4967.1,2056.2,5094.7,2056.2,5177.8,2031.1z"/><path d="M7389.1,1623.3c-40.6-15.5-87-36.7-100.5-48.3c-15.5-11.6-85.1-34.8-156.6-50.3c-230-48.3-351.8-146.9-419.5-344.1c-59.9-177.8-65.7-214.6-38.7-289.9c52.2-150.8,208.8-259,402.1-276.4c69.6-5.8,135.3-23.2,162.4-44.5c181.7-141.1,545.1-116,697.8,48.3c27.1,29,85,71.5,129.5,98.6c106.3,61.9,193.3,164.3,222.3,260.9c44.5,145-36.7,299.6-210.7,400.1c-48.3,29-123.7,88.9-168.2,131.4C7777.6,1642.6,7565,1689,7389.1,1623.3z M7715.8,1377.8c19.3-15.5,48.3-56.1,65.7-92.8c23.2-50.3,50.3-69.6,116-88.9c108.2-30.9,156.6-75.4,156.6-141.1c0-61.9-40.6-102.4-146.9-145c-46.4-17.4-88.9-50.3-100.5-77.3c-67.7-148.8-336.3-158.5-477.4-19.3c-63.8,65.7-69.6,67.7-181.7,56.1c-199.1-21.3-299.6,52.2-216.5,158.5c23.2,29,40.6,79.3,40.6,114c0,98.6,56.1,135.3,214.6,139.2c119.8,1.9,141.1,7.7,201,61.8c59.9,52.2,83.1,59.9,179.8,59.9C7630.7,1402.9,7694.5,1391.3,7715.8,1377.8z"/></g></g>
</svg>