<svg width="14" height="14" fill="currentColor" viewBox="0 0 24 24" xmlns="http://www.w3.org/2000/svg">
  <path d="M3 1.94 1.94 3 21 22.06 22.06 21 3 1.94Z"></path>
  <path d="M1.815 9.971C.628 11.054 0 12.533 0 14.247c0 1.688.674 3.23 1.898 4.34 1.179 1.071 2.769 1.66 4.477 1.66h10.693L5.18 8.36c-1.313.253-2.488.813-3.365 1.612Z"></path>
  <path d="M22.34 19.089c1.086-.865 1.66-2.149 1.66-3.714 0-2.9-2.271-4.469-4.583-4.811-.305-1.93-1.127-3.581-2.395-4.803a7.199 7.199 0 0 0-5.023-2.01c-1.428 0-2.76.403-3.894 1.17L22.3 19.12l.04-.03Z"></path>
</svg>